<?xml version="1.0" standalone="no"?>
<!DOCTYPE svg PUBLIC "-//W3C//DTD SVG 20010904//EN"
 "http://www.w3.org/TR/2001/REC-SVG-20010904/DTD/svg10.dtd">
<svg version="1.0" xmlns="http://www.w3.org/2000/svg"
 width="100.000000pt" height="40.000000pt" viewBox="0 0 100.000000 40.000000"
 preserveAspectRatio="xMidYMid meet">

<g transform="translate(0.000000,40.000000) scale(0.100000,-0.100000)"
fill="#000000" stroke="none">
<path d="M60 235 l0 -65 35 0 c19 0 35 5 35 10 0 6 -11 10 -25 10 -24 0 -25 3
-25 55 0 30 -4 55 -10 55 -6 0 -10 -28 -10 -65z"/>
<path d="M634 286 c-3 -7 -4 -35 -2 -62 3 -45 5 -49 31 -52 43 -5 77 22 77 62
0 19 -8 40 -18 49 -22 21 -81 22 -88 3z m77 -27 c15 -29 -3 -69 -31 -69 -17 0
-20 7 -20 45 0 38 3 45 20 45 10 0 24 -10 31 -21z"/>
<path d="M140 231 c0 -45 13 -58 58 -58 32 0 32 1 32 49 0 35 -4 48 -14 48
-10 0 -16 -13 -18 -37 -4 -52 -28 -56 -28 -4 0 30 -4 41 -15 41 -11 0 -15 -11
-15 -39z"/>
<path d="M262 258 c-17 -17 -15 -63 3 -78 17 -14 47 -10 52 7 3 7 -3 10 -15 6
-22 -5 -35 17 -25 43 3 10 13 14 25 11 12 -4 18 -1 15 6 -5 17 -40 20 -55 5z"/>
<path d="M353 263 c-24 -9 -13 -23 12 -17 15 4 25 2 25 -4 0 -6 -10 -12 -22
-14 -17 -2 -23 -10 -23 -28 0 -22 5 -25 38 -27 36 -1 37 0 37 36 0 52 -25 72
-67 54z m37 -63 c0 -5 -7 -10 -15 -10 -8 0 -15 5 -15 10 0 6 7 10 15 10 8 0
15 -4 15 -10z"/>
<path d="M447 264 c-14 -14 -7 -43 13 -49 26 -8 26 -29 -1 -22 -13 3 -19 1
-16 -6 2 -7 14 -12 28 -12 33 0 38 33 8 58 l-24 19 23 -5 c15 -4 22 -1 19 6
-4 14 -39 21 -50 11z"/>
<path d="M771 256 c-16 -19 -10 -66 10 -79 18 -11 69 -2 69 13 0 5 -13 7 -29
4 -16 -4 -32 -1 -35 5 -5 7 5 11 28 11 28 0 36 4 36 18 0 39 -55 58 -79 28z
m54 -16 c4 -6 -5 -10 -20 -10 -15 0 -24 4 -20 10 3 6 12 10 20 10 8 0 17 -4
20 -10z"/>
<path d="M878 220 c10 -33 21 -50 32 -50 11 0 22 17 32 50 13 40 14 50 3 50
-7 0 -16 -13 -20 -30 -4 -16 -10 -30 -15 -30 -5 0 -11 14 -15 30 -4 17 -13 30
-20 30 -11 0 -10 -10 3 -50z"/>
<path d="M527 194 c-8 -8 1 -24 14 -24 5 0 9 7 9 15 0 15 -12 20 -23 9z"/>
</g>
</svg>
