<?xml version="1.0" standalone="no"?>
<!DOCTYPE svg PUBLIC "-//W3C//DTD SVG 20010904//EN"
 "http://www.w3.org/TR/2001/REC-SVG-20010904/DTD/svg10.dtd">
<svg version="1.0" xmlns="http://www.w3.org/2000/svg"
 width="800.000000pt" height="600.000000pt" viewBox="0 0 800.000000 600.000000"
 preserveAspectRatio="xMidYMid meet">

<g transform="translate(0.000000,600.000000) scale(0.100000,-0.100000)"
fill="#000000" stroke="none">
<path d="M540 5885 c0 -8 7 -15 15 -15 13 0 15 -22 15 -140 0 -118 -2 -140
-15 -140 -8 0 -15 -7 -15 -15 0 -12 19 -15 109 -15 l109 0 6 31 c8 43 8 104
-1 95 -5 -4 -13 -22 -19 -39 -12 -36 -54 -62 -84 -52 -19 6 -20 15 -20 140 0
126 1 133 21 138 41 11 7 27 -57 27 -50 0 -64 -3 -64 -15z"/>
<path d="M1650 5886 c0 -9 7 -16 15 -16 13 0 15 -22 15 -140 0 -118 -2 -140
-15 -140 -8 0 -15 -7 -15 -15 0 -22 124 -21 170 3 68 34 96 159 55 245 -26 54
-52 68 -145 74 -70 5 -80 4 -80 -11z m144 -41 c21 -21 29 -73 24 -152 -3 -53
-8 -69 -27 -84 -13 -11 -27 -16 -32 -13 -5 3 -9 63 -9 135 0 105 3 129 14 129
8 0 21 -7 30 -15z"/>
<path d="M795 5758 c3 -24 7 -73 11 -110 3 -37 11 -71 17 -76 7 -5 41 -10 77
-10 l65 -1 -3 107 c-2 59 -5 113 -7 120 -6 18 -75 16 -75 -2 0 -8 5 -18 10
-21 15 -10 13 -140 -3 -154 -23 -18 -27 -2 -27 96 l0 93 -35 0 -35 0 5 -42z"/>
<path d="M1027 5782 c-38 -42 -48 -117 -23 -177 23 -55 83 -61 119 -13 21 28
17 52 -5 30 -37 -37 -71 12 -66 94 3 51 19 63 28 22 8 -31 44 -31 48 0 8 51
-66 83 -101 44z"/>
<path d="M1179 5779 c-25 -25 -23 -72 5 -77 24 -5 37 16 29 47 -4 17 -2 22 8
19 31 -10 21 -48 -22 -87 -33 -29 -42 -44 -42 -69 0 -46 16 -59 54 -45 23 9
36 9 49 1 9 -6 25 -8 34 -5 21 8 33 40 18 45 -8 2 -12 29 -12 76 0 88 -16 116
-66 116 -21 0 -42 -8 -55 -21z m57 -156 c-5 -12 -10 -13 -17 -6 -8 8 -7 18 2
34 12 21 14 22 17 6 2 -10 1 -25 -2 -34z"/>
<path d="M1349 5784 c-7 -9 -14 -34 -14 -55 0 -31 8 -46 38 -77 20 -21 37 -43
37 -50 0 -23 -31 -12 -48 18 -22 39 -36 38 -28 -1 3 -17 6 -38 6 -45 0 -10 12
-14 38 -14 50 0 72 24 72 76 0 33 -7 46 -35 74 -34 33 -45 60 -25 60 6 0 19
-14 29 -31 22 -36 35 -24 26 23 -6 30 -10 33 -44 36 -26 1 -43 -3 -52 -14z"/>
<path d="M1951 5778 c-38 -40 -41 -159 -6 -198 36 -40 115 -10 115 43 0 20 0
20 -21 1 -25 -22 -49 -11 -60 29 -7 26 -6 27 37 27 43 0 44 1 44 34 0 71 -67
110 -109 64z m57 -41 c3 -22 -1 -27 -17 -27 -23 0 -24 3 -15 38 8 30 28 23 32
-11z"/>
<path d="M2070 5793 c2 -22 78 -227 86 -230 5 -2 24 42 42 97 18 55 37 102 43
105 21 14 8 35 -21 35 -29 0 -31 -2 -25 -33 4 -18 1 -46 -6 -62 l-11 -30 -14
30 c-8 17 -11 45 -8 63 l5 32 -46 0 c-25 0 -45 -3 -45 -7z"/>
<path d="M1491 5636 c-7 -8 -11 -27 -9 -43 2 -22 8 -28 28 -28 20 0 26 6 28
28 3 27 -12 57 -28 57 -4 0 -13 -6 -19 -14z"/>
</g>
</svg>
